<svg style="background-color:#fce38a" viewBox="0 0 216.11795 234.74947">
  <path fill="#364f6b" d="M143.68943 92.41032c-29.19301 14.17255-61.65662 29.43529-67.95553 29.43529-5.45097 0-6.2989-3.75512-5.45097-9.32723 1.33246-9.32723 12.59781-45.66709 21.44051-78.73636 8.60043-31.85794 12.11329-32.34247 13.68801-32.58473 1.33246-.12114 2.05926-.48453 3.14946-1.0902 1.21133-.7268.48453 2.42266-1.93813 4.11852-1.93812 1.33246-3.27059 3.63398-6.42004 12.59782-3.63398 9.93289-6.17777 16.5952-9.9329 30.40434-5.45097 19.98692-14.89933 54.63092-15.8684 61.89889-.60566 4.48191-.60566 8.8427 1.817 8.8427s6.6623-.84793 28.10282-9.9329c21.56164-8.96383 37.55118-17.07973 40.09497-18.0488.60567-.12113 2.78606.7268-.7268 2.42266zM41.73816 202.25648c.86355 0 1.43925.5757 1.43925 1.43925v4.02989c0 .86355-.5757 1.43924-1.43925 1.43924H1.43925c-.86355 0-1.43925-.5757-1.43925-1.43924v-64.28637C0 142.5757.5757 142 1.43925 142h4.60559c.86355 0 1.43924.5757 1.43924 1.43925v58.81723h34.25408zM129.7793 142c.86355 0 1.43925.5757 1.43925 1.43925v38.57182c0 18.99806-9.9308 28.54507-26.86595 28.54507s-26.86594-9.547-26.86594-28.54507v-38.57182c0-.86355.5757-1.43925 1.43925-1.43925h4.60559c.86354 0 1.43924.5757 1.43924 1.43925v38.57182c0 14.77627 7.72396 21.54073 19.38186 21.54073s19.38186-6.76446 19.38186-21.54073v-38.57182c0-.86355.5757-1.43925 1.43925-1.43925h4.60559zm86.07417 65.43777c.5757.9595.1919 1.7271-.9595 1.7271h-4.89344c-.7676 0-1.3433-.28785-1.7271-.9595l-17.55881-27.10582-17.55881 27.10582c-.3838.67165-.9595.9595-1.7271.9595h-4.89344c-1.1514 0-1.5352-.7676-.9595-1.7271l21.10896-32.57496-20.14946-31.1357c-.5757-.9595-.1919-1.7271.9595-1.7271h4.89344c.7676 0 1.3433.28784 1.7271.9595l16.5993 25.66656 16.59932-25.66657c.3838-.67165.9595-.9595 1.7271-.9595h4.89344c1.1514 0 1.5352.7676.9595 1.7271l-20.14946 31.13571zM41.05674 234.70039h-.50354l-.24015-2.96948-1.12845 2.96948h-.31245l-1.1207-2.95917-.24532 2.95917H37l.28148-3.65143h.69464l1.05098 2.76032 1.05613-2.76032h.69464zm5.35429.04906c-1.03549 0-1.82567-.7127-1.82567-1.8773 0-1.16201.79018-1.87215 1.82567-1.87215 1.03032 0 1.82306.71011 1.82306 1.87215 0 1.1646-.79274 1.8773-1.82306 1.8773zm0-.48288c.73078 0 1.30921-.50613 1.30921-1.39441 0-.88056-.57843-1.38667-1.30921-1.38667-.73336 0-1.31438.50614-1.31438 1.38667 0 .8883.58102 1.39441 1.31438 1.39441zm7.25997-1.47707c.43125.10846.72045.40542.72045.91411 0 .58618-.39767.99675-1.05357.99675h-1.43575v-3.65143h1.12071c.67396 0 1.10006.39251 1.10006.97094 0 .34602-.15752.63007-.4519.76952zm-.02843-.736c0-.31503-.22724-.56034-.62232-.56034h-.61976v1.1362h.6998c.33053 0 .54228-.25822.54228-.57583zm-.39248 2.19499c.41575 0 .6404-.2789.6404-.59652 0-.33568-.23498-.60426-.6714-.60426h-.81857v1.20075h.84957zm4.78098.4519v-3.65143h.51388v3.65143h-.51388zm4.95144-.4648h1.24723v.4648h-1.76111v-3.65143h.51388v3.18657zm6.74093-2.72442h-1.46155v1.1362h1.28854v.45965h-1.28854v1.12846h1.46155v.4648h-1.98577v-3.65143h1.98577v.46221zm10.22816 3.18922-.3047-.85216h-1.63199l-.3047.85216h-.53453l1.34537-3.65143h.61975l1.34536 3.65143h-.53453zm-1.77655-1.30147h1.31178l-.6559-1.84116zm8.2799-2.34996h.51128v3.65143h-.55518l-1.9083-2.8973v2.8973h-.5087v-3.65143h.55004l1.91088 2.88433v-2.88433zm4.43245 3.65143v-3.65143h1.20334c1.12327 0 1.69398.75403 1.69398 1.82307 0 1.07681-.57068 1.82825-1.69398 1.82825H90.8874zm.51388-.4648h.6688c.79793 0 1.17751-.52939 1.17751-1.36346 0-.82891-.37958-1.36085-1.1775-1.36085h-.66881v2.72435zm10.89443.4648-1.03033-3.65143h.53453l.84182 2.96948.89346-2.96948h.44931l.89346 2.96948.84441-2.96948h.53194l-1.03032 3.65143h-.61717l-.84697-2.71643-.84698 2.71643h-.61716zm9.48072-3.18922h-1.46155v1.1362h1.28854v.45965h-1.28854v1.12846h1.46155v.4648h-1.98577v-3.65143h1.98577v.46221zm5.4498 1.27833c.43125.10846.72045.40542.72045.91411 0 .58618-.39766.99675-1.05357.99675h-1.43574v-3.65143h1.12071c.67396 0 1.10006.39251 1.10006.97094 0 .34602-.15752.63007-.4519.76952zm-.02842-.736c0-.31503-.22724-.56034-.62232-.56034h-.61976v1.1362h.6998c.33053 0 .54228-.25822.54228-.57583zm-.39248 2.19499c.41575 0 .6404-.2789.6404-.59652 0-.33568-.23498-.60426-.6714-.60426h-.81857v1.20075h.84957zm10.10942.50096c-.76178 0-1.31952-.36411-1.44349-.98384l.5242-.12395c.08263.42607.4519.6714.93735.6714.38992 0 .76435-.1601.7566-.59908-.00517-.43381-.47514-.5526-.9735-.68946-.56553-.15494-1.13102-.33312-1.13102-1.0045 0-.67914.56034-1.01998 1.22399-1.01998.64297 0 1.2214.27114 1.35826.89862l-.49838.12653c-.09038-.40542-.42866-.58618-.83667-.58618-.36667 0-.73078.1601-.73078.57584 0 .37702.408.48805.87021.612.58102.15753 1.24724.33829 1.24724 1.07164 0 .73853-.61976 1.05098-1.30403 1.05098zm6.36651-3.7005c.6688 0 1.10006.50614 1.10006 1.13103 0 .63266-.43125 1.1207-1.10006 1.1207h-.89346v1.3996h-.51388v-3.65143h1.40734zm-.07748 1.80769c.42866 0 .66881-.2763.66881-.6843 0-.39251-.24015-.68172-.6688-.68172h-.816v1.36602h.816zm6.75644-1.34547h-1.46155v1.1362h1.28854v.45965h-1.28854v1.12846h1.46155v.4648h-1.98577v-3.65143h1.98577v.46221zm5.25355 3.23828c-1.03549 0-1.82566-.71011-1.82566-1.8773 0-1.16201.79017-1.87215 1.82566-1.87215.73853 0 1.35052.36668 1.632.99418l-.47515.1885c-.21174-.44674-.64297-.6972-1.15685-.6972-.73335 0-1.31437.50613-1.31437 1.38666 0 .88572.58102 1.39185 1.31437 1.39185.51388 0 .9451-.25048 1.15685-.6972l.47514.19108c-.28147.62492-.89346.9916-1.632.9916zm5.20964-.04906v-3.65143h.51388v3.65143h-.51388zm6.80029 0-.3047-.85216h-1.632l-.3047.85216h-.53452l1.34536-3.65143h.61975l1.34537 3.65143h-.53454zm-1.77656-1.30147h1.31178l-.6559-1.84116zm6.33294.83666h1.24724v.4648h-1.76112v-3.65142h.51388v3.18657zm4.75517.4648v-3.65142h.51388v3.65143h-.51388zm5.5815.04907c-.76178 0-1.31953-.36411-1.44349-.98384l.5242-.12395c.08263.42607.4519.6714.93735.6714.38992 0 .76434-.1601.7566-.59908-.00517-.43381-.47515-.5526-.9735-.68946-.56553-.15494-1.13102-.33312-1.13102-1.0045 0-.67914.56034-1.01998 1.22399-1.01998.64297 0 1.2214.27114 1.35826.89862l-.49838.12653c-.09038-.40542-.42866-.58618-.83667-.58618-.36667 0-.73079.1601-.73079.57584 0 .37702.40801.48805.87022.612.58102.15753 1.24724.33829 1.24724 1.07164 0 .73853-.61976 1.05098-1.30404 1.05098zm6.9036-3.7005v.46222h-.92445v3.18922h-.5087v-3.18922h-.92704v-.46221h2.3602z"/>
</svg>
